<svg viewBox="128 88 195 195" xmlns="http://www.w3.org/2000/svg" preserveAspectRatio="xMidYMid meet">
  <!-- White "B" from the Bitstamp mark (no circle, no underline) -->
  <path fill="#fff" d="m243.22 290.16c12.67.14 25.7-1.44 37.44-6.48s22.24-13.32 28.51-24.48c9.14-15.91 9.36-36.5.86-52.78-6.19-11.88-17.28-20.59-29.66-25.34 8-4.18 15.48-9.72 20.37-17.35 7.71-10.73 8.86-24.63 7.13-37.37a50.33 50.33 0 0 0 -15.12-27.79c-11.75-10.87-27.75-16.42-43.49-17.43-39.74-.14-79.41-.07-119.08 0 .07 9.15-.08 18.29.07 27.51 5.11.21 10.22 1.15 14.69 3.74 9.28 4.68 15.26 14.55 16.27 24.77a31.86 31.86 0 0 1 -8 23c-5.84 6.41-14.33 10.44-23 10.08.07 8.35 0 16.7.07 25.13 6.05.43 12.24 1.8 17.21 5.4 9.07 5.83 14.25 16.7 13.75 27.36a33.23 33.23 0 0 1 -2.88 16.05c-4.9 10.73-16.27 18.29-28.15 18.08.07 9.28 0 18.57 0 27.86zm31.32-54.58a30.07 30.07 0 0 1 -19.23 21.82c-7.05 2.66-14.69 2.38-22.1 2.38-14 0-27.94-.08-41.91.07q-.21-31.65 0-63.29c11.6.22 23.26.07 34.92.07 7.85.07 15.84-.36 23.62.87 8.21 1.65 16.13 6.19 20.66 13.39 4.83 7.2 5.69 16.34 4.04 24.69zm-83.38-124.41h45.07c9.43-.36 19.37 3.09 25.78 10.22 6.05 6.63 7.7 16.2 6.26 24.84-1.58 10.51-10.51 18.79-20.45 21.6-6 1.95-12.38 1.23-18.64 1.37h-38c.05-19.37.05-38.66-.02-58.03z"/>
</svg>