<svg xmlns="http://www.w3.org/2000/svg" width="1400" height="360" viewBox="0 0 1400 360">
<defs>
  <linearGradient id="pipeGrad" x1="0%" y1="0%" x2="100%" y2="0%">
    <stop offset="0%" stop-color="#8ab4a3" stop-opacity="0.15"/>
    <stop offset="50%" stop-color="#8ab4a3" stop-opacity="0.4"/>
    <stop offset="100%" stop-color="#8ab4a3" stop-opacity="0.15"/>
  </linearGradient>
</defs>

<!-- Source → Hub curves -->
<path d="M 78 75 C 369 75, 369 180, 660 180" fill="none" stroke="url(#pipeGrad)" stroke-width="1.5"/>
<path d="M 78 117 C 369 117, 369 180, 660 180" fill="none" stroke="url(#pipeGrad)" stroke-width="1.5"/>
<path d="M 78 159 C 369 159, 369 180, 660 180" fill="none" stroke="url(#pipeGrad)" stroke-width="1.5"/>
<path d="M 78 201 C 369 201, 369 180, 660 180" fill="none" stroke="url(#pipeGrad)" stroke-width="1.5"/>
<path d="M 78 243 C 369 243, 369 180, 660 180" fill="none" stroke="url(#pipeGrad)" stroke-width="1.5"/>
<path d="M 78 285 C 369 285, 369 180, 660 180" fill="none" stroke="url(#pipeGrad)" stroke-width="1.5"/>

<!-- Hub → Destination curves -->
<path d="M 740 180 C 1030 180, 1030 75, 1320 75" fill="none" stroke="url(#pipeGrad)" stroke-width="1.5"/>
<path d="M 740 180 C 1030 180, 1030 117, 1320 117" fill="none" stroke="url(#pipeGrad)" stroke-width="1.5"/>
<path d="M 740 180 C 1030 180, 1030 159, 1320 159" fill="none" stroke="url(#pipeGrad)" stroke-width="1.5"/>
<path d="M 740 180 C 1030 180, 1030 201, 1320 201" fill="none" stroke="url(#pipeGrad)" stroke-width="1.5"/>
<path d="M 740 180 C 1030 180, 1030 243, 1320 243" fill="none" stroke="url(#pipeGrad)" stroke-width="1.5"/>
<path d="M 740 180 C 1030 180, 1030 285, 1320 285" fill="none" stroke="url(#pipeGrad)" stroke-width="1.5"/>

<!-- Source logos -->
<g transform="translate(54.75, 61.00) scale(0.130233)">
<g transform="matrix(1,0,0,1,-1259.52,-529.088)">
        <g id="eth_Ethereum">
            <g id="eth_Bottom">
                <g id="eth_Purple2" transform="matrix(1.08181,0,0,-1.03277,-108.829,1366.48)">
                    <path d="M1394.74,693.463L1330.36,604.024L1330.36,654.238L1394.74,693.463Z" style="fill:rgb(200,178,245);stroke:rgb(52,65,192);stroke-width:2.27px;"/>
                </g>
                <g id="eth_Yellow2" transform="matrix(-1.08181,0,0,-1.03277,2769.57,1366.48)">
                    <path d="M1394.74,693.463L1330.36,604.024L1330.36,654.238L1394.74,693.463Z" style="fill:rgb(238,203,192);stroke:rgb(52,65,192);stroke-width:2.27px;"/>
                </g>
            </g>
            <g id="eth_Top">
                <g id="eth_Blue1" transform="matrix(-1,0,0,1,2659.32,-0.0263692)">
                    <path d="M1398.61,639.614L1328.95,608.641L1328.95,679.249L1398.61,639.614Z" style="fill:rgb(135,169,240);stroke:rgb(52,65,192);stroke-width:2.4px;"/>
                </g>
                <g id="eth_Purple1" transform="matrix(1,0,0,1,1.41643,-0.0263692)">
                    <path d="M1398.61,639.614L1328.95,608.641L1328.95,679.249L1398.61,639.614Z" style="fill:rgb(202,179,245);stroke:rgb(52,65,192);stroke-width:2.4px;"/>
                </g>
                <g id="eth_Yellow1" transform="matrix(-1.08181,0,0,1.03277,2769.57,-93.5314)">
                    <path d="M1394.74,709.855L1330.36,604.024L1330.36,679.865L1394.74,709.855Z" style="fill:rgb(238,203,192);stroke:rgb(52,65,192);stroke-width:2.27px;"/>
                </g>
                <g id="eth_Green1" transform="matrix(1.08181,0,0,1.03277,-108.829,-93.5314)">
                    <path d="M1394.74,709.855L1330.36,604.024L1330.36,679.865L1394.74,709.855Z" style="fill:rgb(184,251,246);stroke:rgb(52,65,192);stroke-width:2.27px;"/>
                </g>
            </g>
        </g>
    </g>
</g>
<g transform="translate(50.00, 103.00) scale(0.027344)">
<g id="btc_bitcoin">
  <path d="m1008.6 635.86c-68.383 274.29-346.19 441.22-620.51 372.82-274.21-68.383-441.14-346.21-372.72-620.48 68.352-274.32 346.16-441.26 620.4-372.88 274.3 68.383 441.21 346.24 372.83 620.54z" fill="#f7931a"/>
  <path d="m343.53 598.23c-2.7852 6.9102-9.8398 17.277-25.746 13.344 0.5625 0.81641-40.832-10.191-40.832-10.191l-27.887 64.301 73.105 18.227c13.598 3.4062 26.926 6.9766 40.047 10.336l-23.246 93.344 56.109 14 23.023-92.352c15.328 4.1602 30.211 8 44.77 11.613l-22.945 91.922 56.176 14 23.25-93.168c95.793 18.129 167.82 10.816 198.14-75.824 24.43-69.762-1.2188-110-51.617-136.24 36.703-8.4648 64.352-32.609 71.727-82.48 10.195-68.129-41.68-104.75-112.61-129.18l23.008-92.289-56.176-14-22.402 89.855c-14.766-3.6797-29.934-7.1523-45.008-10.594l22.562-90.445-56.145-14-23.023 92.254c-12.227-2.7812-24.227-5.5352-35.875-8.4297l0.066406-0.28906-77.473-19.344-14.945 60s41.68 9.5508 40.801 10.145c22.754 5.6797 26.863 20.734 26.176 32.672m202.69 273.63c-17.359 69.758-134.82 32.047-172.89 22.59l30.848-123.66c38.078 9.5039 160.19 28.32 142.05 101.07zm17.379-180.99c-15.844 63.453-113.6 31.215-145.31 23.309l27.965-112.16c31.715 7.9062 133.84 22.656 117.35 88.852z" fill="#fff"/>
 </g>
</g>
<g transform="translate(50.00, 146.43) scale(0.089457)">
<g clip-path="url(#sol_clip0_476_2430)">
<path d="M311.318 221.057L259.66 276.558C258.537 277.764 257.178 278.725 255.669 279.382C254.159 280.039 252.53 280.378 250.884 280.377H5.99719C4.8287 280.377 3.68568 280.035 2.70855 279.393C1.73143 278.751 0.962771 277.837 0.49702 276.764C0.0312691 275.69 -0.111286 274.504 0.0868712 273.35C0.285028 272.196 0.815265 271.126 1.61243 270.27L53.3099 214.769C54.4299 213.566 55.7843 212.607 57.2893 211.95C58.7943 211.293 60.4178 210.953 62.0595 210.95H306.933C308.101 210.95 309.244 211.292 310.221 211.934C311.199 212.576 311.967 213.49 312.433 214.564C312.899 215.637 313.041 216.824 312.843 217.977C312.645 219.131 312.115 220.201 311.318 221.057ZM259.66 109.294C258.537 108.088 257.178 107.127 255.669 106.47C254.159 105.813 252.53 105.474 250.884 105.475H5.99719C4.8287 105.475 3.68568 105.817 2.70855 106.459C1.73143 107.101 0.962771 108.015 0.49702 109.088C0.0312691 110.162 -0.111286 111.348 0.0868712 112.502C0.285028 113.656 0.815265 114.726 1.61243 115.582L53.3099 171.083C54.4299 172.286 55.7843 173.245 57.2893 173.902C58.7943 174.559 60.4178 174.899 62.0595 174.902H306.933C308.101 174.902 309.244 174.56 310.221 173.918C311.199 173.276 311.967 172.362 312.433 171.288C312.899 170.215 313.041 169.028 312.843 167.875C312.645 166.721 312.115 165.651 311.318 164.795L259.66 109.294ZM5.99719 69.4267H250.884C252.53 69.4275 254.159 69.089 255.669 68.432C257.178 67.7751 258.537 66.8139 259.66 65.6082L311.318 10.1069C312.115 9.25107 312.645 8.18056 312.843 7.02695C313.041 5.87334 312.899 4.68686 312.433 3.6133C311.967 2.53974 311.199 1.62586 310.221 0.983941C309.244 0.342026 308.101 3.95314e-05 306.933 0L62.0595 0C60.4178 0.00279866 58.7943 0.34314 57.2893 0.999953C55.7843 1.65677 54.4299 2.61607 53.3099 3.81847L1.62576 59.3197C0.829361 60.1748 0.299359 61.244 0.100752 62.3964C-0.0978539 63.5488 0.0435698 64.7342 0.507679 65.8073C0.971789 66.8803 1.73841 67.7943 2.71352 68.4372C3.68863 69.0802 4.82984 69.424 5.99719 69.4267Z" fill="url(#sol_paint0_linear_476_2430)"/>
</g>
<defs>
<linearGradient id="sol_paint0_linear_476_2430" x1="26.415" y1="287.059" x2="283.735" y2="-2.49574" gradientUnits="userSpaceOnUse">
<stop offset="0.08" stop-color="#9945FF"/>
<stop offset="0.3" stop-color="#8752F3"/>
<stop offset="0.5" stop-color="#5497D5"/>
<stop offset="0.6" stop-color="#43B4CA"/>
<stop offset="0.72" stop-color="#28E0B9"/>
<stop offset="0.97" stop-color="#19FB9B"/>
</linearGradient>
<clipPath id="sol_clip0_476_2430">
<rect width="312.93" height="280.377" fill="white"/>
</clipPath>
</defs>
</g>
<g transform="translate(50.00, 187.00) scale(0.027344)">

   <g id="bnb_Icon">
      <circle cx="512" cy="512" r="512" style="fill:#f3ba2f"/>
      <path class="st1" d="M404.9 468 512 360.9l107.1 107.2 62.3-62.3L512 236.3 342.6 405.7z"/>
      <path transform="rotate(-45.001 298.629 511.998)" class="st1" d="M254.6 467.9h88.1V556h-88.1z"/>
      <path class="st1" d="M404.9 556 512 663.1l107.1-107.2 62.4 62.3h-.1L512 787.7 342.6 618.3l-.1-.1z"/>
      <path transform="rotate(-45.001 725.364 512.032)" class="st1" d="M681.3 468h88.1v88.1h-88.1z"/>
      <path class="st1" d="M575.2 512 512 448.7l-46.7 46.8-5.4 5.3-11.1 11.1-.1.1.1.1 63.2 63.2 63.2-63.3z"/>
   </g>
</g>
<g transform="translate(50.00, 229.00) scale(0.583333)">
<title>Coinbase logo</title><path d="M24,36c-6.63,0-12-5.37-12-12s5.37-12,12-12c5.94,0,10.87,4.33,11.82,10h12.09C46.89,9.68,36.58,0,24,0 C10.75,0,0,10.75,0,24s10.75,24,24,24c12.58,0,22.89-9.68,23.91-22H35.82C34.87,31.67,29.94,36,24,36z" fill="#2962ff"></path>
</g>
<g transform="translate(50.00, 271.00) scale(0.011200)">

<g id="krk_Layer_x0020_1">
	<rect y="0" class="st0" width="2500" height="2500"></rect>
	<path id="krk__230da8ffff_1_" class="st1" d="M1169.6,267.1c217.2-14.6,438.6,29.2,632.8,127.4c288.2,142,518,396.8,624.5,697.6   c48,133.7,73.1,273.6,73.1,415.6v524.2c0,20.9,0,43.9-4.2,64.8c-12.5,52.2-50.1,100.2-100.2,123.2c-35.5,16.7-75.2,18.8-110.7,12.5   c-79.4-14.6-142-89.8-142-171.3c0-162.9,0-325.8,0-488.7c2.1-45.9,2.1-96.1-23-135.8c-39.7-75.2-139.9-110.7-217.2-79.4   c-66.8,23-114.9,91.9-117,162.9c0,165,0,330,0,495c0,31.3,2.1,62.7-8.4,91.9c-16.7,58.5-64.7,104.4-123.2,121.1   c-77.3,20.9-165-12.5-202.6-83.5c-27.2-41.8-25.1-94-23-142c0-165,0-327.9,0-492.9c-2.1-83.5-71-158.7-152.5-169.2   c-54.3-8.4-110.7,10.4-150.4,48c-35.5,33.4-54.3,81.4-54.3,129.5v478.3c0,39.7,4.2,81.4-10.4,119.1c-23,68.9-91.9,119.1-165,117   c-75.2,4.2-148.3-48-171.3-117c-12.5-35.5-10.4-71-10.4-108.6c0-165,0-330,0-495c0-81.4-64.8-156.6-144.1-171.3   c-73.1-14.6-152.5,20.9-190.1,87.7c-14.6,27.1-23,58.5-23,89.8v536.8c0,52.2-23,104.4-62.7,137.9c-60.6,52.2-158.7,56.4-221.4,8.4   c-46-31.3-73.1-85.6-73.1-142v-543c0-204.7,52.2-409.4,150.4-591.1C229.7,776.7,340.4,645.1,472,540.7   C666.3,377.8,914.8,281.7,1169.6,267.1L1169.6,267.1L1169.6,267.1z"></path>
</g>
</g>

<!-- Hub logo -->
<g transform="translate(660.00, 140.00) scale(0.078125)">
<path d="M477.277 2.08807C447.902 5.94581 418.88 8.40841 389.884 15.2905C309.52 34.3686 232.697 74.2272 171.404 129.659C121.892 174.436 79.6563 229.295 51.722 290.133C-36.8641 483.059 -0.384073 722.008 151.257 873.649C215.042 937.434 295.321 983.218 382.082 1007.34C444.058 1024.56 510.39 1027.75 574.032 1020.04C646.942 1011.2 720.299 984.415 781.589 944.009C817.844 920.107 851.668 893.14 881.327 861.303C975.716 759.972 1024.78 623.219 1018.74 485.205C1013.3 361.076 958.352 235.978 870.518 148.144C796.115 73.7388 696.998 22.6065 592.759 7.24421C555.66 1.77752 514.732 -2.8293 477.277 2.08807Z" fill="#F7F0E3"/>
<path d="M124.555 753.861C136.156 742.373 137.659 721.94 140.617 706.604C147.778 669.479 154.084 632.121 159.878 594.762C171.474 519.989 181.387 442.066 213.254 372.655C223.834 349.611 236.442 327.502 252.84 308.07C259.519 300.155 275.424 290.169 277.459 279.716C279.044 271.574 271.314 257.937 269.276 249.787C264.58 230.993 263.175 212.375 263.175 193.078C339.249 193.078 415.404 191.503 491.583 191.503C550.718 191.503 610.11 190.635 664.859 216.532C689.741 228.301 712.799 246.939 729.62 268.69C735.377 276.134 740.47 283.954 744.789 292.318C747.484 297.541 749.625 304.313 754.982 307.41C763.675 312.435 775.212 314.647 784.576 318.472C799.59 324.604 814.413 333.34 827.108 343.434C878.451 384.261 912.246 449.513 900.176 516.001C895.898 539.566 885.832 558.412 874.364 579.01C860.821 564.502 858.704 541.027 839.709 531.08C830.447 526.229 816.788 528.603 806.63 528.603C796.313 528.603 785.265 527.494 775.125 529.656C747.387 535.575 729.081 558.145 723.869 585.311C719.576 607.682 721.402 630.676 724.513 653.046C730.984 699.575 747.521 743.535 768.435 785.365C777.154 802.805 786.884 819.545 797.703 835.773C800.907 840.579 805.62 850.878 811.629 852.555C817.444 854.179 823.615 845.558 827.108 842.074C838.856 830.351 850.397 818.566 861.073 805.843C906.435 751.775 938.594 685.567 954.151 616.816C964.576 570.742 969.959 520.709 965.46 473.47C951.015 321.786 866.695 181.888 731.018 108.503C562.125 17.1488 347.473 42.3352 204.891 171.293C173.467 199.713 146.042 232.74 123.649 268.69C97.4181 310.802 78.3783 357.383 67.2965 405.735C52.6705 469.56 52.4972 538.509 65.3259 602.639C75.8973 655.484 94.7244 708.636 124.555 753.861ZM323.034 246.636C326.474 256.724 331.76 265.498 338.928 273.415C342.644 277.522 349.59 282.793 348.283 289.144C346.958 295.585 338.962 299.049 334.06 302.329C324.127 308.973 314.115 316.641 305.974 325.422C279.824 353.626 263.014 387.364 249.666 423.062C231.117 472.669 223.17 525.296 215.49 577.435C209.121 620.67 201.809 663.748 193.235 706.604C188.778 728.882 183.991 751.591 175.59 772.763C172.271 781.128 161.911 796.916 163.623 805.843C165.008 813.066 173.215 819.784 178.119 824.746C189.922 836.693 201.59 848.893 214.343 859.828C256.446 895.928 304.184 923.607 356.114 942.967C374.693 949.893 394.67 957.557 414.397 960.216C414.397 799.164 456.136 621.124 598.699 526.503C621.282 511.516 645.624 499.401 671.16 490.312C729.215 469.65 787.352 473.47 847.586 473.47C846.762 433.52 816.103 396.516 783.001 377.163C774.478 372.179 764.415 366.255 754.647 364.227C749.179 363.092 744.252 365.423 738.895 366.064C732.176 366.867 725.173 366.354 718.417 366.354H623.903C627.85 383.623 628.304 398.816 616.769 413.605C592.015 445.339 543.505 432.827 533.738 394.708C531.243 384.968 533.721 375.897 535.69 366.354H491.583C483.673 366.354 475.095 367.175 467.961 363.063C450.468 352.982 450.744 328.325 471.105 321.939C478.937 319.483 488.203 320.672 496.309 320.672H543.566H699.514C697.19 307.799 687.144 296.796 677.454 288.522C658.526 272.358 636.697 261.141 612.876 254.073C576.334 243.229 537.139 245.061 499.46 245.061C440.559 245.061 381.895 246.636 323.034 246.636ZM467.955 969.667C496.985 969.686 525.497 972.17 554.593 969.399C629.619 962.256 710.213 935.587 770.399 889.33C756.901 865.634 739.824 844.137 726.78 820.02C697.047 765.051 674.482 703.053 669.449 640.444C666.79 607.352 664.517 573.706 682.186 544.355C643.82 553.447 607.054 581.68 579.796 608.939C485.78 702.956 467.955 843.143 467.955 969.667Z" fill="#03352D"/>
</g>

<!-- Destination flags -->
<g transform="translate(1320.00, 60.00) scale(0.058594)">
<mask id="de_a"><circle cx="256" cy="256" r="256" fill="#fff"/></mask><g mask="url(#de_a)"><path fill="#ffda44" d="m0 345 256.7-25.5L512 345v167H0z"/><path fill="#d80027" d="m0 167 255-23 257 23v178H0z"/><path fill="#333" d="M0 0h512v167H0z"/></g>
</g>
<g transform="translate(1320.00, 102.00) scale(0.058594)">
<mask id="at_a"><circle cx="256" cy="256" r="256" fill="#fff"/></mask><g mask="url(#at_a)"><path fill="#d80027" d="M0 0h512v167l-23.2 89.7L512 345v167H0V345l29.4-89L0 167z"/><path fill="#eee" d="M0 167h512v178H0z"/></g>
</g>
<g transform="translate(1320.00, 144.00) scale(0.058594)">
<mask id="ch_a"><circle cx="256" cy="256" r="256" fill="#fff"/></mask><g mask="url(#ch_a)"><path fill="#d80027" d="M0 0h512v512H0z"/><path fill="#eee" d="M389.6 211.5h-89v-89h-89.1v89h-89v89h89v89h89v-89h89z"/></g>
</g>
<g transform="translate(1320.00, 186.00) scale(0.058594)">
<mask id="fr_a"><circle cx="256" cy="256" r="256" fill="#fff"/></mask><g mask="url(#fr_a)"><path fill="#eee" d="M167 0h178l25.9 252.3L345 512H167l-29.8-253.4z"/><path fill="#0052b4" d="M0 0h167v512H0z"/><path fill="#d80027" d="M345 0h167v512H345z"/></g>
</g>
<g transform="translate(1320.00, 228.00) scale(0.058594)">
<mask id="us_a"><circle cx="256" cy="256" r="256" fill="#fff"/></mask><g mask="url(#us_a)"><path fill="#eee" d="M0 256L256 0h256v55.7l-20.7 34.5 20.7 32.2v66.8l-21.2 32.7L512 256v66.8l-24 31.7 24 35.1v66.7l-259.1 28.3L0 456.3v-66.7l27.1-33.3L0 322.8z"/><path fill="#d80027" d="M256 256h256v-66.8H236.9zm-19.1-133.6H512V55.7H236.9zM512 512v-55.7H0V512zM0 389.6h512v-66.8H0z"/><path fill="#0052b4" d="M0 0h256v256H0z"/><path fill="#eee" d="M15 14.5L6.9 40H-20L1.7 55.8l-8.3 25.5L15 65.5l21.6 15.8-8.2-25.4L50.2 40H23.4zm91.8 0L98.5 40H71.7l21.7 15.8-8.3 25.5 21.7-15.8 21.7 15.8-8.3-25.4L142 40h-26.8zm91.9 0l-8.3 25.6h-26.8l21.7 15.8-8.3 25.5 21.7-15.8 21.6 15.7-8.2-25.3 21.7-16H207zM15 89.2l-8.3 25.5H-20l21.7 15.8-8.3 25.5L15 140l21.6 15.7-8.2-25.3 21.7-16H23.4zm91.8 0l-8.3 25.5H71.8l21.7 15.8-8.3 25.5 21.7-15.8 21.6 15.7-8.2-25.3 21.7-16h-26.8zm91.8 0l-8.3 25.5h-26.8l21.7 15.8-8.3 25.5 21.7-15.8 21.6 15.7-8.2-25.3 21.7-16H207zM15 163.6l-8.3 25.5H-20L1.6 205l-8.3 25.5L15 214.6l21.7 15.8-8.3-25.4 21.7-15.9H23.3zm91.8 0l-8.3 25.5H71.7L93.4 205l-8.3 25.5 21.7-15.8 21.7 15.8-8.3-25.4 21.7-15.9h-26.8zm91.8 0l-8.3 25.5h-26.8l21.7 15.8-8.3 25.5 21.7-15.8 21.7 15.8L212 205l21.7-15.9H207z"/></g>
</g>
<g transform="translate(1320.00, 270.00) scale(0.058594)">
<mask id="en_a"><circle cx="256" cy="256" r="256" fill="#fff"/></mask><g mask="url(#en_a)"><path fill="#eee" d="M0 0h47.4l76.4 21 65.4-21h33.4l34.2 16.6L289.4 0h33.4l70.4 22.8L464.8 0h15.8l12.2 7.3L512 0v47.3l-19.9 78 19.9 63.9v33.4l-16.4 30.6 16.4 36.2v33.4l-15.1 68.7 15.1 73.3v15.9l-7.8 10.9L512 512h-47.3l-71-17.5-70.9 17.5h-33.4l-30-19.7-36.8 19.7h-33.3l-63.7-20.2L47.3 512H31.4l-10.6-8L0 512v-47.3l22.8-79L0 322.9v-33.4l25.3-32L0 222.6v-33.4l22.2-64.6L0 47.2V31.4l8-7.8z"/><path fill="#0052b4" d="M47.4 0l141.8 142V0H47.4zm275.4 0v142l142-142h-142zM0 47.2v142h142L0 47.2zm512 .1L370.1 189.2H512V47.3zM0 322.8v141.9l141.9-141.9H0zm370 0l142 142v-142H370zM189.3 370l-142 142h142V370zm133.5.1V512h141.9L322.8 370.1z"/><path fill="#d80027" d="M222.6 0v222.6H0v66.8h222.6V512h66.8V289.4H512v-66.8H289.4V0h-66.8z"/><path fill="#d80027" d="M0 0v31.4l157.7 157.8h31.5L0 0zm480.6 0L322.8 157.7v31.5L512 0h-31.4zM189.2 322.8L0 512h31.4l157.8-157.7v-31.5zm133.6 0L511.9 512h.1v-31.3L354.3 322.8h-31.5z"/></g>
</g>
</svg>