<svg width="32" height="32" viewBox="0 0 1024 1024" fill="none" xmlns="http://www.w3.org/2000/svg">
<path d="M477.277 2.08807C447.902 5.94581 418.88 8.40841 389.884 15.2905C309.52 34.3686 232.697 74.2272 171.404 129.659C121.892 174.436 79.6563 229.295 51.722 290.133C-36.8641 483.059 -0.384073 722.008 151.257 873.649C215.042 937.434 295.321 983.218 382.082 1007.34C444.058 1024.56 510.39 1027.75 574.032 1020.04C646.942 1011.2 720.299 984.415 781.589 944.009C817.844 920.107 851.668 893.14 881.327 861.303C975.716 759.972 1024.78 623.219 1018.74 485.205C1013.3 361.076 958.352 235.978 870.518 148.144C796.115 73.7388 696.998 22.6065 592.759 7.24421C555.66 1.77752 514.732 -2.8293 477.277 2.08807Z" fill="currentColor" fill-opacity="0.1"/>
<path d="M124.555 753.861C136.156 742.373 137.659 721.94 140.617 706.604C147.778 669.479 154.084 632.121 159.878 594.762C171.474 519.989 181.387 442.066 213.254 372.655C223.834 349.611 236.442 327.502 252.84 308.07C259.519 300.155 275.424 290.169 277.459 279.716C279.044 271.574 271.314 257.937 269.276 249.787C264.58 230.993 263.175 212.375 263.175 193.078C339.249 193.078 415.404 191.503 491.583 191.503C550.718 191.503 610.11 190.635 664.859 216.532C689.741 228.301 712.799 246.939 729.62 268.69C735.377 276.134 740.47 283.954 744.789 292.318C747.484 297.541 749.625 304.313 754.982 307.41C763.675 312.435 775.212 314.647 784.576 318.472C799.59 324.604 814.413 333.34 827.108 343.434C878.451 384.261 912.246 449.513 900.176 516.001C895.898 539.566 885.832 558.412 874.364 579.01C860.821 564.502 858.704 541.027 839.709 531.08C830.447 526.229 816.788 528.603 806.63 528.603C796.313 528.603 785.265 527.494 775.125 529.656C747.387 535.575 729.081 558.145 723.869 585.311C719.576 607.682 721.402 630.676 724.513 653.046C730.984 699.575 747.521 743.535 768.435 785.365C777.154 802.805 786.884 819.545 797.703 835.773C800.907 840.579 805.62 850.878 811.629 852.555C817.444 854.179 823.615 845.558 827.108 842.074C838.856 830.351 850.397 818.566 861.073 805.843C906.435 751.775 938.594 685.567 954.151 616.816C964.576 570.742 969.959 520.709 965.46 473.47C951.015 321.786 866.695 181.888 731.018 108.503C562.125 17.1488 347.473 42.3352 204.891 171.293C173.467 199.713 146.042 232.74 123.649 268.69C97.4181 310.802 78.3783 357.383 67.2965 405.735C52.6705 469.56 52.4972 538.509 65.3259 602.639C75.8973 655.484 94.7244 708.636 124.555 753.861ZM323.034 246.636C326.474 256.724 331.76 265.498 338.928 273.415C342.644 277.522 349.59 282.793 348.283 289.144C346.958 295.585 338.962 299.049 334.06 302.329C324.127 308.973 314.115 316.641 305.974 325.422C279.824 353.626 263.014 387.364 249.666 423.062C231.117 472.669 223.17 525.296 215.49 577.435C209.121 620.67 201.809 663.748 193.235 706.604C188.778 728.882 183.991 751.591 175.59 772.763C172.271 781.128 161.911 796.916 163.623 805.843C165.008 813.066 173.215 819.784 178.119 824.746C189.922 836.693 201.59 848.893 214.343 859.828C256.446 895.928 304.184 923.607 356.114 942.967C374.693 949.893 394.67 957.557 414.397 960.216C414.397 799.164 456.136 621.124 598.699 526.503C621.282 511.516 645.624 499.401 671.16 490.312C729.215 469.65 787.352 473.47 847.586 473.47C846.762 433.52 816.103 396.516 783.001 377.163C774.478 372.179 764.415 366.255 754.647 364.227C749.179 363.092 744.252 365.423 738.895 366.064C732.176 366.867 725.173 366.354 718.417 366.354H623.903C627.85 383.623 628.304 398.816 616.769 413.605C592.015 445.339 543.505 432.827 533.738 394.708C531.243 384.968 533.721 375.897 535.69 366.354H491.583C483.673 366.354 475.095 367.175 467.961 363.063C450.468 352.982 450.744 328.325 471.105 321.939C478.937 319.483 488.203 320.672 496.309 320.672H543.566H699.514C697.19 307.799 687.144 296.796 677.454 288.522C658.526 272.358 636.697 261.141 612.876 254.073C576.334 243.229 537.139 245.061 499.46 245.061C440.559 245.061 381.895 246.636 323.034 246.636ZM467.955 969.667C496.985 969.686 525.497 972.17 554.593 969.399C629.619 962.256 710.213 935.587 770.399 889.33C756.901 865.634 739.824 844.137 726.78 820.02C697.047 765.051 674.482 703.053 669.449 640.444C666.79 607.352 664.517 573.706 682.186 544.355C643.82 553.447 607.054 581.68 579.796 608.939C485.78 702.956 467.955 843.143 467.955 969.667Z" fill="currentColor"/>
</svg>
