<svg width="429" height="87" viewBox="0 0 429 87" fill="none" xmlns="http://www.w3.org/2000/svg">
<path d="M25.344 85.376V16.256H-2.52724e-05V2.94397H67.84V16.256H42.624V85.376H25.344ZM81.697 86.656C77.857 86.656 74.273 85.9733 70.945 84.608C67.7023 83.1573 65.057 81.0666 63.009 78.336C61.0463 75.52 60.065 72.0213 60.065 67.84C60.065 61.8666 62.1556 57.088 66.337 53.504C70.6036 49.92 76.8756 48.128 85.153 48.128H103.073V46.464C103.073 42.7093 102.006 40.064 99.873 38.528C97.825 36.992 93.6436 36.224 87.329 36.224C80.417 36.224 73.761 37.2906 67.361 39.424V27.264C70.177 26.1546 73.5903 25.2586 77.601 24.576C81.697 23.808 86.1343 23.424 90.913 23.424C100.044 23.424 107.084 25.3013 112.033 29.056C117.068 32.7253 119.585 38.656 119.585 46.848V85.376H104.609L103.713 79.872C101.324 82.0053 98.3796 83.6693 94.881 84.864C91.3823 86.0586 86.9876 86.656 81.697 86.656ZM86.433 75.264C90.273 75.264 93.601 74.624 96.417 73.344C99.233 72.064 101.452 70.4426 103.073 68.48V58.88H85.537C78.7956 58.88 75.425 61.6533 75.425 67.2C75.425 72.576 79.0943 75.264 86.433 75.264ZM121.162 85.376L144.458 54.528L122.058 24.704H140.746L153.802 42.368L166.858 24.704H185.546L163.274 54.528L186.442 85.376H167.626L153.802 66.816L139.978 85.376H121.162ZM187.885 85.376V2.94397H205.293L229.485 52.48L253.677 2.94397H270.957V85.376H253.677V31.744L234.477 71.168H224.493L205.165 31.744V85.376H187.885ZM299.462 86.656C295.622 86.656 292.038 85.9733 288.71 84.608C285.467 83.1573 282.822 81.0666 280.774 78.336C278.811 75.52 277.83 72.0213 277.83 67.84C277.83 61.8666 279.921 57.088 284.102 53.504C288.369 49.92 294.641 48.128 302.918 48.128H320.838V46.464C320.838 42.7093 319.771 40.064 317.638 38.528C315.59 36.992 311.409 36.224 305.094 36.224C298.182 36.224 291.526 37.2906 285.126 39.424V27.264C287.942 26.1546 291.355 25.2586 295.366 24.576C299.462 23.808 303.899 23.424 308.678 23.424C317.809 23.424 324.849 25.3013 329.798 29.056C334.833 32.7253 337.35 38.656 337.35 46.848V85.376H322.374L321.478 79.872C319.089 82.0053 316.145 83.6693 312.646 84.864C309.147 86.0586 304.753 86.656 299.462 86.656ZM304.198 75.264C308.038 75.264 311.366 74.624 314.182 73.344C316.998 72.064 319.217 70.4426 320.838 68.48V58.88H303.302C296.561 58.88 293.19 61.6533 293.19 67.2C293.19 72.576 296.859 75.264 304.198 75.264ZM338.927 85.376L362.223 54.528L339.823 24.704H358.511L371.567 42.368L384.623 24.704H403.311L381.039 54.528L404.207 85.376H385.391L371.567 66.816L357.743 85.376H338.927ZM409.874 13.568V-3.05176e-05H428.69V13.568H409.874ZM411.282 85.376V37.504H402.194L403.73 24.704H428.562V85.376H411.282Z" fill="#F7F0E3"/>
</svg>
