<svg width="605" height="191" viewBox="0 0 605 191" fill="none" xmlns="http://www.w3.org/2000/svg">
<g clip-path="url(#clip0_32_36)">
<g clip-path="url(#clip1_32_36)">
<path d="M74.5742 15.8263C69.9844 16.429 65.4498 16.8138 60.9192 17.8891C48.3622 20.8701 36.3587 27.098 26.7816 35.7592C19.0453 42.7557 12.4461 51.3274 8.08133 60.8332C-5.76024 90.9779 -0.0602403 128.314 23.6337 152.008C33.6001 161.974 46.1437 169.128 59.7 172.896C69.3839 175.588 79.7483 176.086 89.6923 174.881C101.084 173.5 112.546 169.315 122.123 163.001C127.788 159.267 133.073 155.053 137.707 150.079C152.455 134.246 160.121 112.878 159.177 91.3132C158.328 71.9182 149.742 52.3715 136.018 38.6475C124.393 27.0217 108.906 19.0323 92.6184 16.6319C86.8216 15.7777 80.4266 15.0579 74.5742 15.8263Z" fill="#03352D"/>
<path d="M19.4617 133.291C21.2744 131.496 21.5092 128.303 21.9714 125.907C23.0903 120.106 24.0756 114.269 24.9809 108.432C26.7929 96.7483 28.3418 84.5728 33.321 73.7273C34.974 70.1267 36.944 66.6723 39.5062 63.636C40.5498 62.3992 43.035 60.839 43.353 59.2057C43.6006 57.9334 42.3928 55.8027 42.0743 54.5292C41.3406 51.5926 41.1211 48.6836 41.1211 45.6685C53.0077 45.6685 64.9068 45.4224 76.8099 45.4224C86.0496 45.4224 95.3297 45.2868 103.884 49.3331C107.772 51.172 111.375 54.0842 114.003 57.4827C114.903 58.646 115.698 59.8677 116.373 61.1747C116.794 61.9909 117.129 63.049 117.966 63.5329C119.324 64.318 121.127 64.6636 122.59 65.2612C124.936 66.2194 127.252 67.5844 129.236 69.1616C137.258 75.5408 142.538 85.7365 140.653 96.1251C139.984 99.8072 138.411 102.752 136.619 105.97C134.503 103.703 134.172 100.035 131.205 98.4813C129.757 97.7233 127.623 98.0942 126.036 98.0942C124.424 98.0942 122.698 97.9209 121.113 98.2588C116.779 99.1835 113.919 102.71 113.104 106.955C112.434 110.45 112.719 114.043 113.205 117.538C114.216 124.809 116.8 131.677 120.068 138.213C121.43 140.938 122.951 143.554 124.641 146.089C125.142 146.84 125.878 148.45 126.817 148.712C127.726 148.966 128.69 147.618 129.236 147.074C131.071 145.242 132.875 143.401 134.543 141.413C141.63 132.965 146.655 122.62 149.086 111.877C150.715 104.678 151.556 96.8608 150.853 89.4796C148.596 65.779 135.421 43.92 114.222 32.4536C87.8321 18.1795 54.2927 22.1149 32.0143 42.2645C27.1042 46.7052 22.8191 51.8656 19.3201 57.4827C15.2216 64.0628 12.2466 71.3411 10.5151 78.896C8.22977 88.8687 8.20269 99.6421 10.2072 109.662C11.859 117.919 14.8007 126.224 19.4617 133.291ZM50.474 54.0369C51.0116 55.6131 51.8376 56.9841 52.9575 58.2211C53.5381 58.8628 54.6235 59.6863 54.4192 60.6787C54.2122 61.6852 52.9629 62.2264 52.1969 62.7389C50.6448 63.777 49.0804 64.9752 47.8084 66.3471C43.7224 70.7541 41.096 76.0257 39.0103 81.6035C36.1121 89.3546 34.8704 97.5775 33.6702 105.724C32.6751 112.48 31.5326 119.211 30.1929 125.907C29.4966 129.388 28.7486 132.936 27.436 136.244C26.9174 137.551 25.2986 140.018 25.5662 141.413C25.7825 142.542 27.0649 143.591 27.8311 144.367C29.6753 146.233 31.4984 148.14 33.4911 149.848C40.0696 155.489 47.5288 159.814 55.6427 162.839C58.5458 163.921 61.6673 165.118 64.7496 165.534C64.7496 140.369 71.2713 112.551 93.5467 97.7661C97.0753 95.4244 100.879 93.5314 104.869 92.1112C113.94 88.8828 123.024 89.4796 132.435 89.4796C132.307 83.2375 127.516 77.4557 122.344 74.4317C121.012 73.653 119.44 72.7273 117.914 72.4105C117.059 72.2331 116.289 72.5973 115.452 72.6975C114.403 72.823 113.308 72.7428 112.253 72.7428H97.4848C98.1016 75.4411 98.1725 77.815 96.3701 80.1257C92.5024 85.0842 84.9226 83.1292 83.3966 77.1731C83.0067 75.6513 83.3939 74.2339 83.7015 72.7428H76.8099C75.5738 72.7428 74.2337 72.871 73.1189 72.2286C70.3857 70.6534 70.4287 66.8007 73.6102 65.8029C74.834 65.4192 76.2817 65.605 77.5483 65.605H84.9322H109.299C108.936 63.5937 107.366 61.8744 105.852 60.5815C102.895 58.056 99.4839 56.3033 95.7619 55.1989C90.0522 53.5046 83.928 53.7908 78.0406 53.7908C68.8373 53.7908 59.6712 54.0369 50.474 54.0369ZM73.118 167.011C77.6539 167.013 82.1088 167.402 86.6551 166.969C98.378 165.852 110.971 161.685 120.375 154.458C118.266 150.755 115.598 147.396 113.559 143.628C108.914 135.039 105.388 125.352 104.601 115.569C104.186 110.399 103.831 105.142 106.592 100.555C100.597 101.976 94.8522 106.388 90.5932 110.647C75.9032 125.337 73.118 147.241 73.118 167.011Z" fill="#F7F0E3"/>
</g>
<path d="M193.52 141V71.88H168.176V58.568H236.016V71.88H210.8V141H193.52ZM249.873 142.28C246.033 142.28 242.449 141.597 239.121 140.232C235.878 138.781 233.233 136.691 231.185 133.96C229.222 131.144 228.241 127.645 228.241 123.464C228.241 117.491 230.332 112.712 234.513 109.128C238.78 105.544 245.052 103.752 253.329 103.752H271.249V102.088C271.249 98.3333 270.182 95.688 268.049 94.152C266.001 92.616 261.82 91.848 255.505 91.848C248.593 91.848 241.937 92.9147 235.537 95.048V82.888C238.353 81.7787 241.766 80.8827 245.777 80.2C249.873 79.432 254.31 79.048 259.089 79.048C268.22 79.048 275.26 80.9253 280.209 84.68C285.244 88.3493 287.761 94.28 287.761 102.472V141H272.785L271.889 135.496C269.5 137.629 266.556 139.293 263.057 140.488C259.558 141.683 255.164 142.28 249.873 142.28ZM254.609 130.888C258.449 130.888 261.777 130.248 264.593 128.968C267.409 127.688 269.628 126.067 271.249 124.104V114.504H253.713C246.972 114.504 243.601 117.277 243.601 122.824C243.601 128.2 247.27 130.888 254.609 130.888ZM289.338 141L312.634 110.152L290.234 80.328H308.922L321.978 97.992L335.034 80.328H353.722L331.45 110.152L354.618 141H335.802L321.978 122.44L308.154 141H289.338ZM356.061 141V58.568H373.469L397.661 108.104L421.853 58.568H439.133V141H421.853V87.368L402.653 126.792H392.669L373.341 87.368V141H356.061ZM467.638 142.28C463.798 142.28 460.214 141.597 456.886 140.232C453.643 138.781 450.998 136.691 448.95 133.96C446.987 131.144 446.006 127.645 446.006 123.464C446.006 117.491 448.097 112.712 452.278 109.128C456.545 105.544 462.817 103.752 471.094 103.752H489.014V102.088C489.014 98.3333 487.947 95.688 485.814 94.152C483.766 92.616 479.585 91.848 473.27 91.848C466.358 91.848 459.702 92.9147 453.302 95.048V82.888C456.118 81.7787 459.531 80.8827 463.542 80.2C467.638 79.432 472.075 79.048 476.854 79.048C485.985 79.048 493.025 80.9253 497.974 84.68C503.009 88.3493 505.526 94.28 505.526 102.472V141H490.55L489.654 135.496C487.265 137.629 484.321 139.293 480.822 140.488C477.323 141.683 472.929 142.28 467.638 142.28ZM472.374 130.888C476.214 130.888 479.542 130.248 482.358 128.968C485.174 127.688 487.393 126.067 489.014 124.104V114.504H471.478C464.737 114.504 461.366 117.277 461.366 122.824C461.366 128.2 465.035 130.888 472.374 130.888ZM507.103 141L530.399 110.152L507.999 80.328H526.687L539.743 97.992L552.799 80.328H571.487L549.215 110.152L572.383 141H553.567L539.743 122.44L525.919 141H507.103ZM578.05 69.192V55.624H596.866V69.192H578.05ZM579.458 141V93.128H570.37L571.906 80.328H596.738V141H579.458Z" fill="#03352D"/>
</g>
<defs>
<clipPath id="clip0_32_36">
<rect width="605" height="191" fill="white"/>
</clipPath>
<clipPath id="clip1_32_36">
<rect width="160" height="160" fill="white" transform="translate(0 15.5)"/>
</clipPath>
</defs>
</svg>
