<svg width="444" height="88" viewBox="0 0 444 88" fill="none" xmlns="http://www.w3.org/2000/svg">
<path d="M24.192 85.7598V19.1998H4.11272e-05V3.32776H68.992V19.1998H44.8V85.7598H24.192ZM83.694 87.0398C79.854 87.0398 76.27 86.3571 72.942 84.9918C69.6994 83.6264 67.0967 81.5358 65.134 78.7198C63.1714 75.8184 62.19 72.2344 62.19 67.9678C62.19 61.7384 64.2807 56.8744 68.462 53.3758C72.7287 49.7918 79.086 47.9998 87.534 47.9998H104.43V46.5918C104.43 43.5198 103.406 41.3438 101.358 40.0638C99.31 38.6984 95.47 38.0158 89.838 38.0158C82.926 38.0158 76.142 39.0824 69.486 41.2158V27.9038C72.4727 26.7091 76.0994 25.7278 80.366 24.9598C84.718 24.1918 89.2834 23.8078 94.062 23.8078C103.449 23.8078 110.787 25.7278 116.078 29.5678C121.454 33.4078 124.142 39.5091 124.142 47.8718V85.7598H106.094L105.07 80.6398C102.851 82.6878 99.9927 84.2664 96.494 85.3758C93.0807 86.4851 88.814 87.0398 83.694 87.0398ZM90.222 74.3678C93.4647 74.3678 96.2807 73.8131 98.67 72.7038C101.059 71.5944 102.979 70.1864 104.43 68.4798V59.9038H89.838C83.7794 59.9038 80.75 62.3358 80.75 67.1998C80.75 69.4184 81.518 71.1678 83.054 72.4478C84.59 73.7278 86.9794 74.3678 90.222 74.3678ZM124.93 85.7598L148.226 54.9118L125.826 25.0878H148.226L159.49 40.3198L170.754 25.0878H193.154L170.754 54.9118L194.05 85.7598H171.522L159.49 69.7598L147.458 85.7598H124.93ZM194.26 85.7598V3.32776H214.612L237.012 49.0238L259.284 3.32776H279.508V85.7598H258.9V38.3998L242.644 71.6798H231.252L214.868 38.3998V85.7598H194.26ZM306.334 87.0398C302.494 87.0398 298.91 86.3571 295.582 84.9918C292.339 83.6264 289.737 81.5358 287.774 78.7198C285.811 75.8184 284.83 72.2344 284.83 67.9678C284.83 61.7384 286.921 56.8744 291.102 53.3758C295.369 49.7918 301.726 47.9998 310.174 47.9998H327.07V46.5918C327.07 43.5198 326.046 41.3438 323.998 40.0638C321.95 38.6984 318.11 38.0158 312.478 38.0158C305.566 38.0158 298.782 39.0824 292.126 41.2158V27.9038C295.113 26.7091 298.739 25.7278 303.006 24.9598C307.358 24.1918 311.923 23.8078 316.702 23.8078C326.089 23.8078 333.427 25.7278 338.718 29.5678C344.094 33.4078 346.782 39.5091 346.782 47.8718V85.7598H328.734L327.71 80.6398C325.491 82.6878 322.633 84.2664 319.134 85.3758C315.721 86.4851 311.454 87.0398 306.334 87.0398ZM312.862 74.3678C316.105 74.3678 318.921 73.8131 321.31 72.7038C323.699 71.5944 325.619 70.1864 327.07 68.4798V59.9038H312.478C306.419 59.9038 303.39 62.3358 303.39 67.1998C303.39 69.4184 304.158 71.1678 305.694 72.4478C307.23 73.7278 309.619 74.3678 312.862 74.3678ZM347.57 85.7598L370.866 54.9118L348.466 25.0878H370.866L382.13 40.3198L393.394 25.0878H415.794L393.394 54.9118L416.69 85.7598H394.162L382.13 69.7598L370.098 85.7598H347.57ZM420.996 15.4878V-0.000236511H443.396V15.4878H420.996ZM422.66 85.7598V40.3198H413.7L415.492 25.0878H443.268V85.7598H422.66Z" fill="#03352D"/>
</svg>
